<svg width="31" height="18" viewBox="0 0 31 18" fill="none" xmlns="http://www.w3.org/2000/svg">
<path d="M9.57494 0.466966L10.0563 0.948296C10.3754 1.26732 10.3754 1.7846 10.0563 2.10369L4.34249 7.7846L29.933 7.7846C30.3842 7.7846 30.75 8.1504 30.75 8.60157V9.28238C30.75 9.73355 30.3842 10.0993 29.933 10.0993L4.34249 10.0993L10.0563 15.7803C10.3754 16.0993 10.3754 16.6166 10.0563 16.9357L9.57494 17.417C9.25592 17.736 8.73864 17.736 8.41962 17.417L0.48927 9.51964C0.170245 9.20061 0.170245 8.68334 0.48927 8.36424L8.41962 0.466899C8.73864 0.147873 9.25592 0.147873 9.57494 0.466966V0.466966Z" fill="#EC0344"/>
</svg>
