<svg width="24" height="24" viewBox="0 0 24 24" fill="none" xmlns="http://www.w3.org/2000/svg">
<path d="M13.4136 4.96355L13.4136 4.96346C13.878 4.49892 14.4293 4.13042 15.036 3.879C15.6428 3.62758 16.2932 3.49817 16.95 3.49817C17.6068 3.49817 18.2572 3.62758 18.864 3.879C19.4707 4.13042 20.022 4.49892 20.4864 4.96346L20.4865 4.96363C20.9511 5.42795 21.3196 5.97925 21.571 6.58603C21.8224 7.19282 21.9518 7.84319 21.9518 8.49999C21.9518 9.1568 21.8224 9.80717 21.571 10.414C21.3196 11.0207 20.9511 11.572 20.4865 12.0364L20.4864 12.0364L19.4264 13.0964L12 20.5229L4.57355 13.0964L3.51355 12.0364C2.57563 11.0985 2.04871 9.82642 2.04871 8.49999C2.04871 7.17357 2.57563 5.90147 3.51355 4.96355C4.45147 4.02562 5.72357 3.4987 7.05 3.4987C8.37642 3.4987 9.64852 4.02562 10.5864 4.96355L11.6464 6.02355C11.8417 6.21881 12.1583 6.21881 12.3536 6.02355L13.4136 4.96355Z" stroke="#EC0344" stroke-linecap="round" stroke-linejoin="round"/>
</svg>
