<svg width="375" height="377" fill="none" xmlns="http://www.w3.org/2000/svg"><g opacity=".1" fill="#fff"><path d="M232.381 188.5c0 24.787-20.094 44.881-44.881 44.881s-44.881-20.094-44.881-44.881 20.094-44.881 44.881-44.881 44.881 20.094 44.881 44.881Z"/><path fill-rule="evenodd" clip-rule="evenodd" d="M187.5 377c94.963 0 173.525-70.222 186.591-161.571H263.689c-11.09 31.377-41.014 53.857-76.189 53.857-35.175 0-65.099-22.48-76.189-53.857H.909C13.975 306.778 92.537 377 187.5 377Zm-76.189-215.429H.909C13.975 70.221 92.537 0 187.5 0c94.963 0 173.525 70.222 186.591 161.571H263.689c-11.09-31.377-41.014-53.857-76.189-53.857-35.175 0-65.099 22.48-76.189 53.857Zm121.07 26.929c0 24.787-20.094 44.881-44.881 44.881s-44.881-20.094-44.881-44.881 20.094-44.881 44.881-44.881 44.881 20.094 44.881 44.881Z"/></g></svg>