<svg width="375" height="377" viewBox="0 0 375 377" fill="none" xmlns="http://www.w3.org/2000/svg">
<g opacity="0.1">
<path d="M232.381 188.5C232.381 213.287 212.287 233.381 187.5 233.381C162.713 233.381 142.619 213.287 142.619 188.5C142.619 163.713 162.713 143.619 187.5 143.619C212.287 143.619 232.381 163.713 232.381 188.5Z" fill="white"/>
<path fill-rule="evenodd" clip-rule="evenodd" d="M187.5 377C282.463 377 361.025 306.778 374.091 215.429H263.689C252.599 246.806 222.675 269.286 187.5 269.286C152.325 269.286 122.401 246.806 111.311 215.429H0.908935C13.9755 306.778 92.5371 377 187.5 377ZM111.311 161.571H0.908935C13.9755 70.2218 92.5371 0 187.5 0C282.463 0 361.025 70.2218 374.091 161.571H263.689C252.599 130.194 222.675 107.714 187.5 107.714C152.325 107.714 122.401 130.194 111.311 161.571ZM232.381 188.5C232.381 213.287 212.287 233.381 187.5 233.381C162.713 233.381 142.619 213.287 142.619 188.5C142.619 163.713 162.713 143.619 187.5 143.619C212.287 143.619 232.381 163.713 232.381 188.5Z" fill="white"/>
</g>
</svg>
