<svg width="27" height="27" viewBox="0 0 27 27" fill="none" xmlns="http://www.w3.org/2000/svg">
<path d="M26.8141 24.7259L20.4125 18.3243C20.2912 18.203 20.133 18.1397 19.9643 18.1397H19.2682C20.9293 16.215 21.9364 13.7103 21.9364 10.9682C21.9364 4.90933 17.0271 0 10.9682 0C4.90933 0 0 4.90933 0 10.9682C0 17.0271 4.90933 21.9364 10.9682 21.9364C13.7103 21.9364 16.215 20.9293 18.1397 19.2682V19.9643C18.1397 20.133 18.2083 20.2912 18.3243 20.4125L24.7259 26.8141C24.9738 27.062 25.3745 27.062 25.6224 26.8141L26.8141 25.6224C27.062 25.3745 27.062 24.9738 26.8141 24.7259ZM10.9682 19.4053C6.30672 19.4053 2.53113 15.6297 2.53113 10.9682C2.53113 6.30672 6.30672 2.53113 10.9682 2.53113C15.6297 2.53113 19.4053 6.30672 19.4053 10.9682C19.4053 15.6297 15.6297 19.4053 10.9682 19.4053Z" fill="#EC0344"/>
</svg>
