<svg width="27" height="27" fill="none" xmlns="http://www.w3.org/2000/svg"><path d="m26.814 24.726-6.401-6.402a.626.626 0 0 0-.449-.184h-.696a10.938 10.938 0 0 0 2.668-7.172C21.936 4.91 17.027 0 10.968 0S0 4.91 0 10.968c0 6.06 4.91 10.968 10.968 10.968 2.742 0 5.247-1.007 7.172-2.668v.696c0 .169.068.327.184.449l6.402 6.401a.633.633 0 0 0 .896 0l1.192-1.192a.633.633 0 0 0 0-.896Zm-15.846-5.32a8.435 8.435 0 0 1-8.437-8.438 8.435 8.435 0 0 1 8.437-8.437 8.435 8.435 0 0 1 8.437 8.437 8.435 8.435 0 0 1-8.437 8.437Z" fill="#EC0344"/></svg>