<svg width="32" height="32" viewBox="0 0 32 32" fill="none" xmlns="http://www.w3.org/2000/svg">
<rect width="32" height="32" rx="10" fill="#333333"/>
<path d="M27.6288 12.887C27.4197 9.86282 23.587 5.96451 18.7201 4.32373C13.4648 3.53133 8.32381 5.40273 7.00005 8.23954" stroke="#EC0344" stroke-width="3.5" stroke-linecap="round"/>
<path fill-rule="evenodd" clip-rule="evenodd" d="M29.9929 16.4967C29.9929 20.3075 28.4516 23.7539 25.9604 26.2452C23.4685 28.7353 20.0216 30.2763 16.2102 30.2769C12.3983 30.2763 8.95002 28.7353 6.45944 26.2446C3.96757 23.7539 2.42692 20.3075 2.42627 16.4974C2.42627 15.5308 3.20337 14.7459 4.17071 14.7459C5.13741 14.7459 5.9216 15.5295 5.9216 16.4961V16.4974C5.9216 19.332 7.06887 21.9038 8.93519 23.77C10.8009 25.6348 13.3733 26.7894 16.2096 26.7894C19.0452 26.7894 21.6183 25.6348 23.484 23.77C25.3503 21.9038 26.5047 19.332 26.5047 16.4967H26.4982C26.4982 15.5302 27.2818 14.7459 28.2491 14.7459C29.2158 14.7459 30 15.5295 30 16.4961L29.9929 16.4967ZM22.2187 22.504C20.6845 24.0372 18.5609 24.9857 16.2102 24.9857C13.859 24.9857 11.7347 24.0372 10.2011 22.504C8.66756 20.9701 7.71827 18.8464 7.71827 16.4974H7.71118V16.4961H7.71827C7.71827 14.1457 8.66756 12.022 10.2011 10.4888C11.7347 8.9556 13.8583 8.00708 16.2083 8.00708V8H16.2096L16.2102 8.00708C18.5602 8.00708 20.6852 8.9556 22.2187 10.4895C23.7523 12.0227 24.7009 14.1457 24.7009 16.4954H24.708V16.4967H24.7009C24.7009 18.8464 23.7523 20.9701 22.2187 22.504ZM21.2127 16.4954C21.2127 15.1213 20.651 13.872 19.743 12.9641C18.8343 12.0561 17.5852 11.494 16.2102 11.494V11.5011H16.2083V11.494C14.834 11.494 13.5849 12.0561 12.6769 12.9641C11.7682 13.872 11.2065 15.1213 11.2065 16.4961H11.213V16.4974H11.2065C11.2065 17.8715 11.7682 19.1208 12.6769 20.0287C13.5849 20.9366 14.834 21.4988 16.2096 21.4988C17.5845 21.4988 18.8343 20.9366 19.7423 20.0287C20.651 19.1208 21.2127 17.8715 21.2127 16.4967H21.2062V16.4954H21.2127ZM4.17329 13.9558C2.97314 13.9558 2 12.9821 2 11.7825C2 10.5828 2.97314 9.60984 4.17329 9.60984C5.37344 9.60984 6.34723 10.5828 6.34723 11.7825C6.34723 12.9821 5.37344 13.9558 4.17329 13.9558Z" fill="white"/>
</svg>
