<?xml version="1.0" standalone="no"?>
<!DOCTYPE svg PUBLIC "-//W3C//DTD SVG 20010904//EN"
 "http://www.w3.org/TR/2001/REC-SVG-20010904/DTD/svg10.dtd">
<svg version="1.0" xmlns="http://www.w3.org/2000/svg"
 width="700.000000pt" height="700.000000pt" viewBox="0 0 700.000000 700.000000"
 preserveAspectRatio="xMidYMid meet">
<metadata>
Created by potrace 1.14, written by Peter Selinger 2001-2017
</metadata>
<g transform="translate(0.000000,700.000000) scale(0.100000,-0.100000)"
fill="#000000" stroke="none">
<path d="M3149 6776 c-2 -2 -44 -7 -94 -10 -106 -7 -177 -18 -345 -52 -752
-152 -1417 -579 -1883 -1206 -48 -64 -87 -120 -87 -124 0 -4 -11 -21 -24 -38
-33 -44 -131 -215 -181 -317 -89 -181 -183 -444 -230 -644 -1 -5 -5 -21 -8
-35 -4 -14 -9 -38 -12 -55 -36 -194 -35 -191 -52 -360 -10 -98 -10 -366 0
-390 5 -11 8 -22 8 -25 0 -13 55 -99 83 -128 212 -228 597 -136 671 160 7 29
16 120 19 202 4 82 8 151 10 155 2 3 7 35 10 71 4 36 11 83 16 105 5 22 11 52
14 66 17 98 91 327 138 429 11 25 26 56 32 70 6 14 35 70 65 125 287 528 790
939 1356 1109 50 15 104 31 120 36 26 8 122 26 230 45 84 14 185 20 330 20
139 0 211 -4 340 -19 52 -6 198 -36 255 -52 30 -8 60 -16 65 -18 179 -50 397
-147 565 -250 306 -188 593 -478 778 -786 116 -192 233 -471 266 -636 3 -11 9
-40 15 -66 30 -130 49 -295 55 -468 6 -164 59 -280 162 -351 76 -52 126 -69
220 -74 192 -11 366 128 401 321 13 67 6 296 -12 434 -2 19 -7 58 -11 85 -41
339 -192 776 -380 1105 -168 292 -418 596 -670 811 -92 79 -105 90 -184 149
-324 240 -722 426 -1115 520 -147 36 -141 35 -430 76 -46 6 -501 15 -506 10z"/>
<path d="M3190 5577 c-3 -3 -39 -8 -80 -11 -335 -31 -722 -198 -999 -432 -180
-151 -299 -293 -438 -519 -51 -83 -137 -284 -172 -401 -56 -188 -76 -333 -76
-549 0 -176 6 -247 30 -375 128 -670 614 -1229 1260 -1449 363 -123 739 -139
1107 -46 534 136 995 507 1241 1000 43 88 101 228 112 275 1 3 9 30 18 60 101
339 95 758 -16 1110 -61 191 -176 419 -284 560 -80 106 -219 254 -304 325 -62
52 -159 124 -185 139 -16 9 -42 25 -59 36 -49 33 -289 150 -305 150 -9 0 -20
4 -25 9 -21 20 -241 78 -370 98 -16 2 -41 7 -55 9 -32 7 -394 16 -400 11z
m361 -807 c361 -70 664 -305 819 -636 101 -214 128 -444 84 -704 -9 -53 -61
-205 -90 -263 -259 -514 -833 -760 -1367 -586 -660 215 -976 964 -666 1582
109 216 298 403 515 511 89 43 209 83 304 100 111 20 289 18 401 -4z"/>
<path d="M615 3149 c-152 -19 -268 -152 -266 -306 1 -89 92 -404 166 -578 105
-244 161 -350 294 -555 245 -377 607 -721 1004 -954 269 -157 627 -296 907
-351 71 -14 202 -35 260 -41 36 -4 81 -9 100 -11 51 -5 739 -4 845 2 310 17
525 42 698 81 9 2 26 6 37 8 298 66 595 200 865 388 27 19 184 146 214 172 83
76 249 248 304 316 34 41 64 77 67 80 14 12 67 87 78 110 45 94 33 215 -30
307 -93 137 -289 174 -422 79 -24 -17 -84 -79 -132 -136 -272 -327 -534 -524
-854 -643 -96 -36 -223 -71 -296 -83 -21 -3 -41 -7 -44 -9 -3 -2 -33 -6 -65
-10 -33 -3 -67 -8 -75 -10 -8 -2 -46 -7 -85 -10 -38 -4 -85 -8 -104 -10 -87
-10 -378 -18 -644 -18 -290 0 -420 9 -562 40 -38 8 -81 17 -95 19 -200 38
-544 187 -755 327 -212 141 -449 359 -583 537 -40 52 -76 100 -81 106 -25 30
-108 167 -152 248 -101 189 -188 416 -239 621 -12 50 -33 108 -46 130 -64 111
-184 170 -309 154z"/>
<path d="M5956 3069 c-123 -29 -260 -135 -318 -245 -77 -143 -77 -325 0 -468
55 -103 196 -216 302 -242 53 -13 180 -15 234 -4 127 26 267 131 328 246 146
272 6 613 -289 704 -63 19 -195 24 -257 9z"/>
</g>
</svg>
