<?xml version="1.0" standalone="no"?>
<!DOCTYPE svg PUBLIC "-//W3C//DTD SVG 20010904//EN"
 "http://www.w3.org/TR/2001/REC-SVG-20010904/DTD/svg10.dtd">
<svg version="1.0" xmlns="http://www.w3.org/2000/svg"
 width="700.000000pt" height="700.000000pt" viewBox="0 0 700.000000 700.000000"
 preserveAspectRatio="xMidYMid meet">
<metadata>
Created by potrace 1.14, written by Peter Selinger 2001-2017
</metadata>
<g transform="translate(0.000000,700.000000) scale(0.100000,-0.100000)"
fill="#000000" stroke="none">
<path d="M3149 6776 c-2 -2 -44 -7 -94 -10 -106 -7 -177 -18 -345 -52 -752
-152 -1417 -579 -1883 -1206 -48 -64 -87 -120 -87 -124 0 -4 -11 -21 -24 -38
-33 -44 -131 -215 -181 -317 -89 -181 -183 -444 -230 -644 -1 -5 -5 -21 -8
-35 -4 -14 -9 -38 -12 -55 -36 -194 -35 -191 -52 -360 -10 -98 -10 -366 0
-390 5 -11 8 -22 8 -25 0 -13 55 -99 83 -128 212 -228 597 -136 671 160 7 29
16 120 19 202 4 82 8 151 10 155 2 3 7 35 10 71 4 36 11 83 16 105 5 22 11 52
14 66 17 98 91 327 138 429 11 25 26 56 32 70 6 14 35 70 65 125 287 529 789
939 1356 1109 50 15 104 31 120 36 26 8 122 26 230 45 164 27 444 28 670 1
274 -33 621 -158 885 -320 306 -188 593 -478 778 -786 153 -254 252 -519 302
-812 19 -114 26 -189 35 -374 8 -186 92 -318 242 -381 51 -21 69 -24 139 -28
192 -11 366 128 401 321 13 67 6 296 -12 434 -2 19 -7 58 -11 85 -41 339 -192
776 -380 1105 -168 292 -418 596 -670 811 -92 79 -105 90 -184 149 -324 240
-722 426 -1115 520 -147 36 -141 35 -430 76 -46 6 -501 15 -506 10z"/>
<path d="M3190 5577 c-3 -3 -39 -8 -80 -11 -335 -31 -722 -198 -999 -432 -180
-151 -299 -293 -438 -519 -51 -83 -137 -284 -172 -401 -56 -188 -76 -333 -76
-549 0 -176 6 -247 30 -375 128 -670 614 -1229 1260 -1449 225 -76 436 -109
672 -105 767 16 1453 490 1741 1204 26 64 42 108 47 130 1 3 9 30 18 60 101
339 95 758 -16 1110 -61 191 -176 419 -284 560 -80 106 -219 254 -304 325 -62
52 -159 124 -185 139 -16 9 -42 25 -59 36 -49 33 -289 150 -305 150 -9 0 -20
4 -25 9 -21 20 -241 78 -370 98 -16 2 -41 7 -55 9 -32 7 -394 16 -400 11z
m361 -807 c361 -70 664 -305 819 -636 101 -214 128 -444 84 -704 -9 -53 -61
-205 -90 -263 -259 -514 -833 -760 -1367 -586 -660 215 -976 964 -666 1582
109 216 298 403 515 511 89 43 209 83 304 100 111 20 289 18 401 -4z"/>
<path d="M545 3153 c-127 -51 -204 -155 -213 -288 -3 -59 2 -92 33 -205 38
-138 60 -209 74 -245 5 -11 25 -65 46 -120 113 -300 299 -614 519 -877 378
-452 894 -794 1449 -962 126 -38 308 -82 379 -90 24 -3 53 -8 65 -10 22 -5
118 -15 188 -21 57 -5 683 -5 790 0 219 9 309 16 425 30 559 70 950 225 1335
529 140 110 367 340 486 491 72 91 85 113 99 165 43 161 -27 313 -179 387 -47
24 -68 28 -136 27 -129 -1 -190 -37 -307 -183 -142 -176 -333 -356 -492 -464
-168 -114 -433 -222 -646 -263 -110 -21 -156 -28 -255 -39 -233 -26 -892 -39
-1095 -22 -456 37 -931 234 -1290 534 -75 63 -244 227 -289 281 -180 216 -325
451 -411 667 -18 44 -36 89 -41 100 -15 35 -74 220 -84 265 -30 132 -51 177
-109 235 -66 64 -126 89 -221 92 -54 1 -93 -4 -120 -14z"/>
<path d="M5956 3069 c-123 -29 -260 -135 -318 -245 -77 -143 -77 -325 0 -468
55 -103 196 -216 302 -242 53 -13 180 -15 234 -4 127 26 267 131 328 246 146
272 6 613 -289 704 -63 19 -195 24 -257 9z"/>
</g>
</svg>
