<svg width="32" height="32" fill="none" xmlns="http://www.w3.org/2000/svg"><path fill-rule="evenodd" clip-rule="evenodd" d="M1.007 15.278c0-3.947 1.597-7.516 4.177-10.096a14.243 14.243 0 0 1 10.098-4.176c3.948 0 7.52 1.597 10.1 4.176a14.23 14.23 0 0 1 4.176 10.096 1.808 1.808 0 0 1-1.806 1.814 1.813 1.813 0 0 1-1.814-1.813v-.001c0-2.936-1.188-5.6-3.12-7.533a10.63 10.63 0 0 0-7.535-3.127 10.63 10.63 0 0 0-7.534 3.127 10.624 10.624 0 0 0-3.129 7.533h.007A1.813 1.813 0 0 1 1 15.28h.007ZM9.06 9.057a8.772 8.772 0 0 1 6.223-2.57c2.436 0 4.636.982 6.224 2.57a8.77 8.77 0 0 1 2.572 6.22h.007v.002h-.008a8.767 8.767 0 0 1-2.571 6.222 8.769 8.769 0 0 1-6.222 2.57v.008h-.001v-.008a8.77 8.77 0 0 1-6.224-2.57 8.765 8.765 0 0 1-2.57-6.221H6.48v-.002h.007A8.77 8.77 0 0 1 9.06 9.057Zm1.042 6.223a5.16 5.16 0 0 0 1.522 3.657 5.164 5.164 0 0 0 3.66 1.523v-.008h.001v.008a5.161 5.161 0 0 0 3.658-1.523 5.159 5.159 0 0 0 1.523-3.658h-.007v-.001h.007a5.159 5.159 0 0 0-1.523-3.658 5.162 5.162 0 0 0-3.66-1.522 5.164 5.164 0 0 0-3.658 1.522 5.159 5.159 0 0 0-1.523 3.658h.007v.002H10.1Zm17.648 2.63a2.251 2.251 0 1 1 0 4.503 2.251 2.251 0 0 1 0-4.503Z" fill="#EC0344"/><path d="M3 19c1.5 6.5 7 10 12 10s8.5 0 12-4.5" stroke="#000" stroke-width="3" stroke-linecap="round"/></svg>