<svg width="30" height="24" viewBox="0 0 30 24" fill="none" xmlns="http://www.w3.org/2000/svg">
<path fill-rule="evenodd" clip-rule="evenodd" d="M29.3945 9.37116C29.3945 13.1817 27.8175 16.6278 25.2687 19.119C22.7192 21.609 19.1926 23.1498 15.2932 23.1505V23.1563H15.2925V23.1505C11.3924 23.1498 7.86509 21.609 5.31693 19.1184C2.76745 16.6278 1.19118 13.1817 1.19052 9.3718C1.19052 8.40532 1.98559 7.62042 2.97529 7.62042C3.96434 7.62042 4.76666 8.40403 4.76666 9.37052V9.3718C4.76666 12.2062 5.94045 14.7779 7.84991 16.6439C9.75872 18.5086 12.3907 19.6631 15.2925 19.6631V19.6561H15.2932V19.6631C18.1943 19.6631 20.8263 18.5086 22.7351 16.6439C24.6445 14.7779 25.8256 12.2062 25.8256 9.37116H25.819V9.37052C25.819 8.40403 26.6206 7.62042 27.6104 7.62042C28.5994 7.62042 29.4017 8.40403 29.4017 9.37052V9.37116H29.3945ZM21.4405 15.378C19.8709 16.9111 17.6981 17.8596 15.2932 17.8596V17.866H15.2925V17.8596C12.8869 17.8596 10.7141 16.9111 9.14511 15.378C7.5761 13.8443 6.60487 11.7207 6.60487 9.3718H6.59761V9.37052H6.60487C6.60487 7.02031 7.5761 4.89675 9.14511 3.36364C10.7141 1.83054 12.8869 0.882083 15.2912 0.882083V0.875H15.2925H15.2932V0.882083C17.6975 0.882083 19.8715 1.83054 21.4405 3.36429C23.0095 4.8974 23.9801 7.02031 23.9801 9.36987H23.9874V9.37052V9.37116H23.9801C23.9801 11.7207 23.0095 13.8443 21.4405 15.378ZM20.4112 9.36987C20.4112 7.99581 19.8366 6.74665 18.9076 5.83877C17.9779 4.93088 16.6999 4.36876 15.2932 4.36876V4.37584H15.2925H15.2912V4.36876C13.8851 4.36876 12.6071 4.93088 11.6781 5.83877C10.7484 6.74665 10.1737 7.99581 10.1737 9.37052H10.1803V9.3718H10.1737C10.1737 10.7459 10.7484 11.995 11.6781 12.9029C12.6071 13.8108 13.8851 14.3729 15.2925 14.3729V14.3658H15.2932V14.3729C16.6999 14.3729 17.9779 13.8108 18.9069 12.9029C19.8366 11.995 20.4112 10.7459 20.4112 9.37116H20.4046V9.37052V9.36987H20.4112ZM2.97793 6.83036C1.75004 6.83036 0.754395 5.8568 0.754395 4.65722C0.754395 3.45765 1.75004 2.48473 2.97793 2.48473C4.20582 2.48473 5.20213 3.45765 5.20213 4.65722C5.20213 5.8568 4.20582 6.83036 2.97793 6.83036Z" fill="#EC0344"/>
</svg>
