<svg width="30" height="31" fill="none" xmlns="http://www.w3.org/2000/svg"><path fill-rule="evenodd" clip-rule="evenodd" d="M29.395 12.371c0 3.81-1.578 7.257-4.126 9.748-2.55 2.49-6.076 4.03-9.976 4.032v.005-.005c-3.9-.001-7.428-1.542-9.976-4.033-2.55-2.49-4.126-5.936-4.126-9.746 0-.967.795-1.752 1.784-1.752.99 0 1.792.784 1.792 1.75v.002c0 2.834 1.173 5.406 3.083 7.272a10.623 10.623 0 0 0 7.443 3.02v-.008.007c2.901 0 5.533-1.154 7.442-3.02 1.91-1.865 3.09-4.437 3.09-7.272h-.006c0-.967.802-1.75 1.791-1.75.99 0 1.792.783 1.792 1.75h-.008Zm-7.954 6.007a8.768 8.768 0 0 1-6.148 2.482v.006-.006a8.766 8.766 0 0 1-6.148-2.482 8.371 8.371 0 0 1-2.54-6.006h-.007v-.002h.007a8.37 8.37 0 0 1 2.54-6.006 8.765 8.765 0 0 1 6.146-2.482v-.007h.002v.007c2.405 0 4.579.949 6.148 2.482a8.367 8.367 0 0 1 2.54 6.006h.006v.001h-.007a8.37 8.37 0 0 1-2.54 6.007Zm-1.03-6.008a4.927 4.927 0 0 0-1.503-3.531 5.162 5.162 0 0 0-3.615-1.47v.007h-.002v-.007a5.158 5.158 0 0 0-3.613 1.47 4.925 4.925 0 0 0-1.504 3.531h.006v.002h-.006c0 1.374.574 2.623 1.504 3.53a5.16 5.16 0 0 0 3.614 1.47v-.006h.001v.007a5.159 5.159 0 0 0 3.614-1.47 4.925 4.925 0 0 0 1.504-3.532h-.006v-.001h.006ZM2.978 9.83C1.75 9.83.754 8.857.754 7.657c0-1.2.996-2.172 2.224-2.172 1.228 0 2.224.973 2.224 2.172 0 1.2-.996 2.173-2.224 2.173Z" fill="#EC0344"/></svg>